{
  "accessors": [
    {
      "bufferView": 2,
      "componentType": 5126,
      "count": 220,
      "max": [
        5,
        0.82669997215270996,
        10.023900032043457
      ],
      "min": [
        -5,
        0.45300000905990601,
        -9.976099967956543
      ],
      "type": "VEC3"
    },
    {
      "bufferView": 2,
      "byteOffset": 2640,
      "componentType": 5126,
      "count": 220,
      "max": [
        1,
        1,
        1
      ],
      "min": [
        -1,
        0,
        -1
      ],
      "type": "VEC3"
    },
    {
      "bufferView": 3,
      "componentType": 5126,
      "count": 220,
      "max": [
        0,
        0,
        0.010744929313659668,
        1
      ],
      "min": [
        -1,
        0,
        -0.0060263662599027157,
        1
      ],
      "type": "VEC4"
    },
    {
      "bufferView": 1,
      "componentType": 5126,
      "count": 220,
      "max": [
        2.7671000957489014,
        1
      ],
      "min": [
        -1.7670999765396118,
        0
      ],
      "type": "VEC2"
    },
    {
      "bufferView": 0,
      "componentType": 5125,
      "count": 390,
      "max": [
        219
      ],
      "min": [
        0
      ],
      "type": "SCALAR"
    },
    {
      "bufferView": 2,
      "byteOffset": 5280,
      "componentType": 5126,
      "count": 228,
      "max": [
        5,
        -0.57389998435974121,
        10.023900032043457
      ],
      "min": [
        -5,
        -0.94760000705718994,
        -9.976099967956543
      ],
      "type": "VEC3"
    },
    {
      "bufferView": 2,
      "byteOffset": 8016,
      "componentType": 5126,
      "count": 228,
      "max": [
        1,
        0,
        1
      ],
      "min": [
        -1,
        -1,
        -1
      ],
      "type": "VEC3"
    },
    {
      "bufferView": 3,
      "byteOffset": 3520,
      "componentType": 5126,
      "count": 228,
      "max": [
        1,
        0,
        0.010745430365204811,
        1
      ],
      "min": [
        0,
        0,
        -0.0064614880830049515,
        1
      ],
      "type": "VEC4"
    },
    {
      "bufferView": 1,
      "byteOffset": 1760,
      "componentType": 5126,
      "count": 228,
      "max": [
        1,
        1
      ],
      "min": [
        0,
        0
      ],
      "type": "VEC2"
    },
    {
      "bufferView": 0,
      "byteOffset": 1560,
      "componentType": 5125,
      "count": 414,
      "max": [
        227
      ],
      "min": [
        0
      ],
      "type": "SCALAR"
    },
    {
      "bufferView": 2,
      "byteOffset": 10752,
      "componentType": 5126,
      "count": 728,
      "max": [
        5.1999998092651367,
        0.4779999852180481,
        10.223899841308594
      ],
      "min": [
        -5.1999998092651367,
        -0.93250000476837158,
        -10.259300231933594
      ],
      "type": "VEC3"
    },
    {
      "bufferView": 2,
      "byteOffset": 19488,
      "componentType": 5126,
      "count": 728,
      "max": [
        1,
        1,
        1
      ],
      "min": [
        -1,
        -1,
        -1
      ],
      "type": "VEC3"
    },
    {
      "bufferView": 3,
      "byteOffset": 7168,
      "componentType": 5126,
      "count": 728,
      "max": [
        1,
        1,
        1,
        1
      ],
      "min": [
        -1,
        -1,
        -1,
        -1
      ],
      "type": "VEC4"
    },
    {
      "bufferView": 1,
      "byteOffset": 3584,
      "componentType": 5126,
      "count": 728,
      "max": [
        2.7671000957489014,
        1
      ],
      "min": [
        -1.7670999765396118,
        0
      ],
      "type": "VEC2"
    },
    {
      "bufferView": 0,
      "byteOffset": 3216,
      "componentType": 5125,
      "count": 1818,
      "max": [
        727
      ],
      "min": [
        0
      ],
      "type": "SCALAR"
    },
    {
      "bufferView": 2,
      "byteOffset": 28224,
      "componentType": 5126,
      "count": 28,
      "max": [
        3.4730000495910645,
        0.4779999852180481,
        -10.135800361633301
      ],
      "min": [
        -3.4730000495910645,
        -0.55879998207092285,
        -10.189599990844727
      ],
      "type": "VEC3"
    },
    {
      "bufferView": 2,
      "byteOffset": 28560,
      "componentType": 5126,
      "count": 28,
      "max": [
        0,
        0,
        -0
      ],
      "min": [
        0,
        -1,
        -1
      ],
      "type": "VEC3"
    },
    {
      "bufferView": 3,
      "byteOffset": 18816,
      "componentType": 5126,
      "count": 28,
      "max": [
        1,
        0,
        0,
        1
      ],
      "min": [
        0,
        0,
        0,
        1
      ],
      "type": "VEC4"
    },
    {
      "bufferView": 1,
      "byteOffset": 9408,
      "componentType": 5126,
      "count": 28,
      "max": [
        0.70109999179840088,
        0.56999999284744263
      ],
      "min": [
        0.29890000820159912,
        0.5
      ],
      "type": "VEC2"
    },
    {
      "bufferView": 0,
      "byteOffset": 10488,
      "componentType": 5125,
      "count": 72,
      "max": [
        27
      ],
      "min": [
        0
      ],
      "type": "SCALAR"
    },
    {
      "bufferView": 2,
      "byteOffset": 28896,
      "componentType": 5126,
      "count": 296,
      "max": [
        -1.6025999784469604,
        0.23229999840259552,
        10.276900291442871
      ],
      "min": [
        -3.1166000366210938,
        -0.11580000072717667,
        9.4377002716064453
      ],
      "type": "VEC3"
    },
    {
      "bufferView": 2,
      "byteOffset": 32448,
      "componentType": 5126,
      "count": 296,
      "max": [
        0.99988603591918945,
        0.99992561340332031,
        1
      ],
      "min": [
        -0.99988603591918945,
        -0.99993836879730225,
        -1
      ],
      "type": "VEC3"
    },
    {
      "bufferView": 3,
      "byteOffset": 19264,
      "componentType": 5126,
      "count": 296,
      "max": [
        0.99999982118606567,
        0.99988609552383423,
        0.0050111138261854649,
        1
      ],
      "min": [
        -1,
        -0.99988609552383423,
        -0.00070939696161076427,
        1
      ],
      "type": "VEC4"
    },
    {
      "bufferView": 1,
      "byteOffset": 9632,
      "componentType": 5126,
      "count": 296,
      "max": [
        1.0348000526428223,
        1.0002000331878662
      ],
      "min": [
        -0.10890000313520432,
        0
      ],
      "type": "VEC2"
    },
    {
      "bufferView": 0,
      "byteOffset": 10776,
      "componentType": 5125,
      "count": 852,
      "max": [
        295
      ],
      "min": [
        0
      ],
      "type": "SCALAR"
    },
    {
      "bufferView": 2,
      "byteOffset": 36000,
      "componentType": 5126,
      "count": 516,
      "max": [
        1.0051000118255615,
        0.76179999113082886,
        -7.0556998252868652
      ],
      "min": [
        -0.87790000438690186,
        -0.99800002574920654,
        -9.039799690246582
      ],
      "type": "VEC3"
    },
    {
      "bufferView": 2,
      "byteOffset": 42192,
      "componentType": 5126,
      "count": 516,
      "max": [
        1,
        1,
        1
      ],
      "min": [
        -1,
        -1,
        -1
      ],
      "type": "VEC3"
    },
    {
      "bufferView": 3,
      "byteOffset": 24000,
      "componentType": 5126,
      "count": 516,
      "max": [
        1,
        0.92367047071456909,
        1,
        1
      ],
      "min": [
        -1,
        -0.92367053031921387,
        -1,
        -1
      ],
      "type": "VEC4"
    },
    {
      "bufferView": 1,
      "byteOffset": 12000,
      "componentType": 5126,
      "count": 516,
      "max": [
        1.0312999486923218,
        1
      ],
      "min": [
        0,
        0
      ],
      "type": "VEC2"
    },
    {
      "bufferView": 0,
      "byteOffset": 14184,
      "componentType": 5125,
      "count": 2688,
      "max": [
        515
      ],
      "min": [
        0
      ],
      "type": "SCALAR"
    },
    {
      "bufferView": 2,
      "byteOffset": 48384,
      "componentType": 5126,
      "count": 450,
      "max": [
        2.9347999095916748,
        0.30250000953674316,
        10.290800094604492
      ],
      "min": [
        2.2971000671386719,
        -0.3255000114440918,
        8.6606998443603516
      ],
      "type": "VEC3"
    },
    {
      "bufferView": 2,
      "byteOffset": 53784,
      "componentType": 5126,
      "count": 450,
      "max": [
        1,
        0.98561561107635498,
        1
      ],
      "min": [
        -1,
        -0.98561561107635498,
        -1
      ],
      "type": "VEC3"
    },
    {
      "bufferView": 3,
      "byteOffset": 32256,
      "componentType": 5126,
      "count": 450,
      "max": [
        0.98561567068099976,
        1,
        0.0052350820042192936,
        1
      ],
      "min": [
        -0.98561567068099976,
        -1,
        -0.004949470516294241,
        -1
      ],
      "type": "VEC4"
    },
    {
      "bufferView": 1,
      "byteOffset": 16128,
      "componentType": 5126,
      "count": 450,
      "max": [
        1.0277999639511108,
        1
      ],
      "min": [
        -0.027799999341368675,
        0
      ],
      "type": "VEC2"
    },
    {
      "bufferView": 0,
      "byteOffset": 24936,
      "componentType": 5125,
      "count": 1716,
      "max": [
        449
      ],
      "min": [
        0
      ],
      "type": "SCALAR"
    },
    {
      "bufferView": 2,
      "byteOffset": 59184,
      "componentType": 5126,
      "count": 308,
      "max": [
        -4.6339998245239258,
        0.46169999241828918,
        6.1690998077392578
      ],
      "min": [
        -5.3292999267578125,
        -0.49540001153945923,
        3.6187999248504639
      ],
      "type": "VEC3"
    },
    {
      "bufferView": 2,
      "byteOffset": 62880,
      "componentType": 5126,
      "count": 308,
      "max": [
        1,
        1,
        0.98481583595275879
      ],
      "min": [
        -1,
        -1,
        -0.98481583595275879
      ],
      "type": "VEC3"
    },
    {
      "bufferView": 3,
      "byteOffset": 39456,
      "componentType": 5126,
      "count": 308,
      "max": [
        0,
        0.98481583595275879,
        1,
        1
      ],
      "min": [
        0,
        -0.98481583595275879,
        -1,
        1
      ],
      "type": "VEC4"
    },
    {
      "bufferView": 1,
      "byteOffset": 19728,
      "componentType": 5126,
      "count": 308,
      "max": [
        0.97219997644424438,
        1
      ],
      "min": [
        -0.027799999341368675,
        0
      ],
      "type": "VEC2"
    },
    {
      "bufferView": 0,
      "byteOffset": 31800,
      "componentType": 5125,
      "count": 1296,
      "max": [
        307
      ],
      "min": [
        0
      ],
      "type": "SCALAR"
    }
  ],
  "asset": {
    "extras": {
      "author": "SilverG (https://sketchfab.com/SilverG)",
      "license": "CC-BY-NC-ND-4.0 (http://creativecommons.org/licenses/by-nc-nd/4.0/)",
      "source": "https://sketchfab.com/3d-models/iphone-9000373d9de74552beb727224595d5d6",
      "title": "Iphone"
    },
    "generator": "Sketchfab-5.51.0",
    "version": "2.0"
  },
  "bufferViews": [
    {
      "buffer": 0,
      "byteLength": 36984,
      "byteOffset": 0,
      "name": "floatBufferViews",
      "target": 34963
    },
    {
      "buffer": 0,
      "byteLength": 22192,
      "byteOffset": 36984,
      "byteStride": 8,
      "name": "floatBufferViews",
      "target": 34962
    },
    {
      "buffer": 0,
      "byteLength": 66576,
      "byteOffset": 59176,
      "byteStride": 12,
      "name": "floatBufferViews",
      "target": 34962
    },
    {
      "buffer": 0,
      "byteLength": 44384,
      "byteOffset": 125752,
      "byteStride": 16,
      "name": "floatBufferViews",
      "target": 34962
    }
  ],
  "buffers": [
    {
      "byteLength": 170136,
      "uri": "scene.bin"
    }
  ],
  "images": [
    {
      "uri": "textures/03___Default_baseColor.png"
    },
    {
      "uri": "textures/07___Default_baseColor.png"
    },
    {
      "uri": "textures/Material__40_baseColor.jpeg"
    }
  ],
  "materials": [
    {
      "doubleSided": true,
      "emissiveFactor": [
        0,
        0,
        0
      ],
      "emissiveTexture": {
        "index": 0,
        "texCoord": 0
      },
      "name": "03___Default",
      "pbrMetallicRoughness": {
        "baseColorFactor": [
          1,
          1,
          1,
          1
        ],
        "baseColorTexture": {
          "index": 0,
          "texCoord": 0
        },
        "metallicFactor": 0,
        "roughnessFactor": 1
      }
    },
    {
      "doubleSided": true,
      "emissiveFactor": [
        0,
        0,
        0
      ],
      "emissiveTexture": {
        "index": 1,
        "texCoord": 0
      },
      "name": "07___Default",
      "pbrMetallicRoughness": {
        "baseColorFactor": [
          1,
          1,
          1,
          1
        ],
        "baseColorTexture": {
          "index": 1,
          "texCoord": 0
        },
        "metallicFactor": 0,
        "roughnessFactor": 1
      }
    },
    {
      "doubleSided": true,
      "emissiveFactor": [
        0,
        0,
        0
      ],
      "name": "08___Default",
      "pbrMetallicRoughness": {
        "baseColorFactor": [
          0.58819999999999995,
          0.58819999999999995,
          0.58819999999999995,
          1
        ],
        "metallicFactor": 0,
        "roughnessFactor": 1
      }
    },
    {
      "doubleSided": true,
      "emissiveFactor": [
        0,
        0,
        0
      ],
      "emissiveTexture": {
        "index": 2,
        "texCoord": 0
      },
      "name": "Material__40",
      "pbrMetallicRoughness": {
        "baseColorFactor": [
          1,
          1,
          1,
          1
        ],
        "baseColorTexture": {
          "index": 2,
          "texCoord": 0
        },
        "metallicFactor": 0,
        "roughnessFactor": 1
      }
    },
    {
      "doubleSided": true,
      "emissiveFactor": [
        0,
        0,
        0
      ],
      "name": "wire_086086086",
      "pbrMetallicRoughness": {
        "baseColorFactor": [
          0.33729999999999999,
          0.33729999999999999,
          0.33729999999999999,
          1
        ],
        "metallicFactor": 0,
        "roughnessFactor": 0.91675550189999999
      }
    },
    {
      "doubleSided": true,
      "emissiveFactor": [
        0,
        0,
        0
      ],
      "name": "wire_115115115",
      "pbrMetallicRoughness": {
        "baseColorFactor": [
          0.45100000000000001,
          0.45100000000000001,
          0.45100000000000001,
          1
        ],
        "metallicFactor": 0,
        "roughnessFactor": 0.91675550189999999
      }
    },
    {
      "doubleSided": true,
      "emissiveFactor": [
        0,
        0,
        0
      ],
      "name": "wire_152116007",
      "pbrMetallicRoughness": {
        "baseColorFactor": [
          0.59609999999999996,
          0.45490000000000003,
          0.0275,
          1
        ],
        "metallicFactor": 0,
        "roughnessFactor": 0.91675550189999999
      }
    },
    {
      "doubleSided": true,
      "emissiveFactor": [
        0,
        0,
        0
      ],
      "name": "wire_228184153",
      "pbrMetallicRoughness": {
        "baseColorFactor": [
          0.84644337729999997,
          0.84644337729999997,
          0.84644337729999997,
          1
        ],
        "metallicFactor": 1,
        "roughnessFactor": 0.82926829270000002
      }
    }
  ],
  "meshes": [
    {
      "primitives": [
        {
          "attributes": {
            "NORMAL": 1,
            "POSITION": 0,
            "TANGENT": 2,
            "TEXCOORD_0": 3
          },
          "indices": 4,
          "material": 0,
          "mode": 4
        }
      ]
    },
    {
      "primitives": [
        {
          "attributes": {
            "NORMAL": 6,
            "POSITION": 5,
            "TANGENT": 7,
            "TEXCOORD_0": 8
          },
          "indices": 9,
          "material": 1,
          "mode": 4
        }
      ]
    },
    {
      "primitives": [
        {
          "attributes": {
            "NORMAL": 11,
            "POSITION": 10,
            "TANGENT": 12,
            "TEXCOORD_0": 13
          },
          "indices": 14,
          "material": 2,
          "mode": 4
        }
      ]
    },
    {
      "primitives": [
        {
          "attributes": {
            "NORMAL": 16,
            "POSITION": 15,
            "TANGENT": 17,
            "TEXCOORD_0": 18
          },
          "indices": 19,
          "material": 3,
          "mode": 4
        }
      ]
    },
    {
      "primitives": [
        {
          "attributes": {
            "NORMAL": 21,
            "POSITION": 20,
            "TANGENT": 22,
            "TEXCOORD_0": 23
          },
          "indices": 24,
          "material": 4,
          "mode": 4
        }
      ]
    },
    {
      "primitives": [
        {
          "attributes": {
            "NORMAL": 26,
            "POSITION": 25,
            "TANGENT": 27,
            "TEXCOORD_0": 28
          },
          "indices": 29,
          "material": 5,
          "mode": 4
        }
      ]
    },
    {
      "primitives": [
        {
          "attributes": {
            "NORMAL": 31,
            "POSITION": 30,
            "TANGENT": 32,
            "TEXCOORD_0": 33
          },
          "indices": 34,
          "material": 6,
          "mode": 4
        }
      ]
    },
    {
      "primitives": [
        {
          "attributes": {
            "NORMAL": 36,
            "POSITION": 35,
            "TANGENT": 37,
            "TEXCOORD_0": 38
          },
          "indices": 39,
          "material": 7,
          "mode": 4
        }
      ]
    }
  ],
  "nodes": [
    {
      "children": [
        1
      ],
      "name": "RootNode (gltf orientation matrix)",
      "rotation": [
        -0.70710678118654746,
        -0,
        -0,
        0.70710678118654757
      ]
    },
    {
      "children": [
        2
      ],
      "name": "RootNode (model correction matrix)"
    },
    {
      "children": [
        3,
        4,
        5,
        6,
        7,
        8,
        9,
        10
      ],
      "name": "AINDA PREFIRO ANDROID.obj.cleaner.materialmerger.gles"
    },
    {
      "mesh": 0,
      "name": ""
    },
    {
      "mesh": 1,
      "name": ""
    },
    {
      "mesh": 2,
      "name": ""
    },
    {
      "mesh": 3,
      "name": ""
    },
    {
      "mesh": 4,
      "name": ""
    },
    {
      "mesh": 5,
      "name": ""
    },
    {
      "mesh": 6,
      "name": ""
    },
    {
      "mesh": 7,
      "name": ""
    }
  ],
  "samplers": [
    {
      "magFilter": 9729,
      "minFilter": 9987,
      "wrapS": 10497,
      "wrapT": 10497
    }
  ],
  "scene": 0,
  "scenes": [
    {
      "name": "OSG_Scene",
      "nodes": [
        0
      ]
    }
  ],
  "textures": [
    {
      "sampler": 0,
      "source": 0
    },
    {
      "sampler": 0,
      "source": 1
    },
    {
      "sampler": 0,
      "source": 2
    }
  ]
}

